<?xml version="1.0" encoding="UTF-8"?>
<svg id="Ebene_1" xmlns="http://www.w3.org/2000/svg" version="1.1" viewBox="0 0 137 137">
  <!-- Generator: Adobe Illustrator 29.0.1, SVG Export Plug-In . SVG Version: 2.1.0 Build 192)  -->
  <defs>
    <style>
      .st0 {
        fill: #fff;
        fill-rule: evenodd;
      }
    </style>
  </defs>
  <path class="st0" d="M37.9,96v-44.9h14.7v44.9h-14.7M77.4,57.3c2.3-4.6,7.7-7,12.4-7,9.3,0,17,7,17,17v28.6h-14.7v-26.3c0-3.9-3.1-7-7.7-7s-7,3.1-7,7v26.3h-15.5v-44.9h15.5v6.2M45.7,43.3c-4.7,0-10.1-3.9-10.1-10.1s5.4-8.5,10.1-8.5,8.5,3.9,8.5,8.5-3.9,10.1-8.5,10.1M68.9,0h-.8C31,0,0,31,0,68.1v.8c0,37.2,31,68.1,68.9,68.1s68.1-31,68.1-68.1v-.8C137,31,106,0,68.9,0"/>
</svg>