<?xml version="1.0" encoding="UTF-8"?>
<svg id="Ebene_1" xmlns="http://www.w3.org/2000/svg" version="1.1" viewBox="0 0 52 52">
  <!-- Generator: Adobe Illustrator 29.0.1, SVG Export Plug-In . SVG Version: 2.1.0 Build 192)  -->
  <defs>
    <style>
      .st0 {
        fill: #fff;
        fill-rule: evenodd;
      }
    </style>
  </defs>
  <path class="st0" d="M27.6,18.1h-3.2v6.4h-5l6.8,8.2,6.5-8.2h-5v-6.4M16.2,35.9c-5.3,0-9.7-4.4-9.7-9.6s3.8-8.8,8.2-9.6c2.4-4.1,6.5-6.7,11.5-6.7s11.2,4.4,12.3,10.2c4.1.3,7.1,3.5,7.1,7.6s-3.8,8.2-8.2,8.2h-21.2M26.1,0C11.8,0,0,11.7,0,26s11.8,26,26.1,26h0c14.1,0,25.9-11.7,25.9-25.7v-.6C52,11.7,40.2,0,26.1,0"/>
</svg>